<svg width="2266" height="471" viewBox="0 0 2266 471" fill="none" xmlns="http://www.w3.org/2000/svg">
<path d="M624.6 336V140H680.04V292.04H773.56V336H624.6ZM795.498 336V140H850.938V336H795.498ZM950.034 336L866.314 140H926.234L996.794 309.68H961.514L1033.75 140H1088.63L1004.63 336H950.034ZM1151.07 215.88H1242.07V257.32H1151.07V215.88ZM1154.99 293.16H1257.47V336H1100.11V140H1253.83V182.84H1154.99V293.16ZM1438.6 339.92C1422.54 339.92 1407.05 337.96 1392.12 334.04C1377.37 329.933 1365.33 324.707 1356 318.36L1374.2 277.48C1382.97 283.08 1393.05 287.747 1404.44 291.48C1416.01 295.027 1427.49 296.8 1438.88 296.8C1446.53 296.8 1452.69 296.147 1457.36 294.84C1462.02 293.347 1465.38 291.48 1467.44 289.24C1469.68 286.813 1470.8 284.013 1470.8 280.84C1470.8 276.36 1468.74 272.813 1464.64 270.2C1460.53 267.587 1455.21 265.44 1448.68 263.76C1442.14 262.08 1434.86 260.4 1426.84 258.72C1419 257.04 1411.06 254.893 1403.04 252.28C1395.2 249.667 1388.01 246.307 1381.48 242.2C1374.94 237.907 1369.62 232.4 1365.52 225.68C1361.41 218.773 1359.36 210.093 1359.36 199.64C1359.36 187.88 1362.53 177.24 1368.88 167.72C1375.41 158.2 1385.12 150.547 1398 144.76C1410.88 138.973 1426.93 136.08 1446.16 136.08C1459.04 136.08 1471.64 137.573 1483.96 140.56C1496.46 143.36 1507.57 147.56 1517.28 153.16L1500.2 194.32C1490.86 189.28 1481.62 185.547 1472.48 183.12C1463.33 180.507 1454.46 179.2 1445.88 179.2C1438.22 179.2 1432.06 180.04 1427.4 181.72C1422.73 183.213 1419.37 185.267 1417.32 187.88C1415.26 190.493 1414.24 193.48 1414.24 196.84C1414.24 201.133 1416.2 204.587 1420.12 207.2C1424.22 209.627 1429.54 211.68 1436.08 213.36C1442.8 214.853 1450.08 216.44 1457.92 218.12C1465.94 219.8 1473.88 221.947 1481.72 224.56C1489.74 226.987 1497.02 230.347 1503.56 234.64C1510.09 238.747 1515.32 244.253 1519.24 251.16C1523.34 257.88 1525.4 266.373 1525.4 276.64C1525.4 288.027 1522.13 298.573 1515.6 308.28C1509.25 317.8 1499.64 325.453 1486.76 331.24C1474.06 337.027 1458.01 339.92 1438.6 339.92ZM1589.99 336V183.96H1529.79V140H1705.35V183.96H1645.43V336H1589.99ZM1692.64 336L1779.16 140H1833.76L1920.56 336H1862.88L1795.12 167.16H1816.96L1749.2 336H1692.64ZM1739.96 297.92L1754.24 257.04H1850L1864.28 297.92H1739.96ZM1968.16 336V183.96H1907.96V140H2083.52V183.96H2023.6V336H1968.16ZM2172.5 339.92C2156.45 339.92 2140.96 337.96 2126.02 334.04C2111.28 329.933 2099.24 324.707 2089.9 318.36L2108.1 277.48C2116.88 283.08 2126.96 287.747 2138.34 291.48C2149.92 295.027 2161.4 296.8 2172.78 296.8C2180.44 296.8 2186.6 296.147 2191.26 294.84C2195.93 293.347 2199.29 291.48 2201.34 289.24C2203.58 286.813 2204.7 284.013 2204.7 280.84C2204.7 276.36 2202.65 272.813 2198.54 270.2C2194.44 267.587 2189.12 265.44 2182.58 263.76C2176.05 262.08 2168.77 260.4 2160.74 258.72C2152.9 257.04 2144.97 254.893 2136.94 252.28C2129.1 249.667 2121.92 246.307 2115.38 242.2C2108.85 237.907 2103.53 232.4 2099.42 225.68C2095.32 218.773 2093.26 210.093 2093.26 199.64C2093.26 187.88 2096.44 177.24 2102.78 167.72C2109.32 158.2 2119.02 150.547 2131.9 144.76C2144.78 138.973 2160.84 136.08 2180.06 136.08C2192.94 136.08 2205.54 137.573 2217.86 140.56C2230.37 143.36 2241.48 147.56 2251.18 153.16L2234.1 194.32C2224.77 189.28 2215.53 185.547 2206.38 183.12C2197.24 180.507 2188.37 179.2 2179.78 179.2C2172.13 179.2 2165.97 180.04 2161.3 181.72C2156.64 183.213 2153.28 185.267 2151.22 187.88C2149.17 190.493 2148.14 193.48 2148.14 196.84C2148.14 201.133 2150.1 204.587 2154.02 207.2C2158.13 209.627 2163.45 211.68 2169.98 213.36C2176.7 214.853 2183.98 216.44 2191.82 218.12C2199.85 219.8 2207.78 221.947 2215.62 224.56C2223.65 226.987 2230.93 230.347 2237.46 234.64C2244 238.747 2249.22 244.253 2253.14 251.16C2257.25 257.88 2259.3 266.373 2259.3 276.64C2259.3 288.027 2256.04 298.573 2249.5 308.28C2243.16 317.8 2233.54 325.453 2220.66 331.24C2207.97 337.027 2191.92 339.92 2172.5 339.92Z" fill="white"/>
<path d="M235.5 0C105.433 0 0 105.433 0 235.5C0 365.567 105.433 471 235.5 471C365.567 471 471 365.567 471 235.5C471 105.433 365.567 0 235.5 0ZM147.046 55.8842L217.885 98.2741V149.919L152.157 197.679L104.02 181.029L90.1965 97.8031C106.52 80.5806 125.768 66.3881 147.046 55.8842ZM38.1745 269.388L92.9754 214.588L141.017 231.19L166.498 309.682L143.655 346.774L66.1049 342.205C52.0819 320.013 42.5895 295.266 38.1745 269.388ZM200.881 432.684L172.998 366.532L195.677 329.629H275.088L296.565 366.862L272.073 432.331C248.552 436.674 224.445 436.794 200.881 432.684ZM397.807 352.685L326.591 348.21L304.501 309.965L330.1 231.19L377.507 214.8L431.954 274.146C426.4 302.491 414.748 329.29 397.807 352.685ZM380.851 97.8738L366.98 181.076L318.938 197.679L253.21 149.919V98.2506L323.907 55.8606C345.225 66.3842 364.506 80.6093 380.851 97.8738Z" fill="white"/>
</svg>
